<svg viewBox="0 0 384 512" xmlns="http://www.w3.org/2000/svg" xmlns:xlink="http://www.w3.org/1999/xlink" overflow="hidden"><path d="M376.6 84.5C387.9 70.9 386.1 50.7 372.5 39.4 358.9 28.1 338.7 29.9 327.4 43.5L192 206 56.6 43.5C45.3 29.9 25.1 28.1 11.5 39.4-2.1 50.7-3.9 70.9 7.4 84.5L150.3 256 7.4 427.5C-3.9 441.1-2.1 461.3 11.5 472.6 25.1 483.9 45.3 482.1 56.6 468.5L192 306 327.4 468.5C338.7 482.1 358.9 483.9 372.5 472.6 386.1 461.3 387.9 441.1 376.6 427.5L233.7 256 376.6 84.5Z" stroke-width="0.999868" fill="#FFFFFF"/></svg>